<mxfile host="app.diagrams.net" agent="Mozilla/5.0 (Windows NT 10.0; Win64; x64) AppleWebKit/537.36 (KHTML, like Gecko) Chrome/131.0.0.0 Safari/537.36" version="24.8.9">
  <diagram name="Page-1" id="9j01nSoo4Kdk6jSs4LSz">
    <mxGraphModel dx="1050" dy="522" grid="0" gridSize="10" guides="1" tooltips="1" connect="1" arrows="1" fold="1" page="1" pageScale="1" pageWidth="827" pageHeight="1169" math="0" shadow="0">
      <root>
        <mxCell id="0" />
        <mxCell id="1" parent="0" />
        <mxCell id="o_LQ8UwduXloLryF-NKm-1" value="Sales Office" style="rounded=0;whiteSpace=wrap;html=1;" vertex="1" parent="1">
          <mxGeometry x="77" y="116" width="120" height="37" as="geometry" />
        </mxCell>
        <mxCell id="o_LQ8UwduXloLryF-NKm-2" value="Employee" style="rounded=0;whiteSpace=wrap;html=1;" vertex="1" parent="1">
          <mxGeometry x="565" y="109" width="120" height="37" as="geometry" />
        </mxCell>
        <mxCell id="o_LQ8UwduXloLryF-NKm-3" value="Property" style="rounded=0;whiteSpace=wrap;html=1;" vertex="1" parent="1">
          <mxGeometry x="107" y="335" width="120" height="37" as="geometry" />
        </mxCell>
        <mxCell id="o_LQ8UwduXloLryF-NKm-4" value="Owner" style="rounded=0;whiteSpace=wrap;html=1;" vertex="1" parent="1">
          <mxGeometry x="533" y="300" width="120" height="37" as="geometry" />
        </mxCell>
        <mxCell id="o_LQ8UwduXloLryF-NKm-10" style="edgeStyle=orthogonalEdgeStyle;rounded=0;orthogonalLoop=1;jettySize=auto;html=1;exitX=0.5;exitY=1;exitDx=0;exitDy=0;entryX=0.25;entryY=0;entryDx=0;entryDy=0;curved=0;endArrow=none;endFill=0;" edge="1" parent="1" source="o_LQ8UwduXloLryF-NKm-5" target="o_LQ8UwduXloLryF-NKm-1">
          <mxGeometry relative="1" as="geometry" />
        </mxCell>
        <mxCell id="o_LQ8UwduXloLryF-NKm-5" value="&lt;u&gt;Office Number&lt;/u&gt;" style="ellipse;whiteSpace=wrap;html=1;" vertex="1" parent="1">
          <mxGeometry x="36" y="37" width="78" height="35" as="geometry" />
        </mxCell>
        <mxCell id="o_LQ8UwduXloLryF-NKm-12" style="edgeStyle=orthogonalEdgeStyle;rounded=0;orthogonalLoop=1;jettySize=auto;html=1;exitX=0.5;exitY=1;exitDx=0;exitDy=0;endArrow=none;endFill=0;" edge="1" parent="1" source="o_LQ8UwduXloLryF-NKm-7">
          <mxGeometry relative="1" as="geometry">
            <mxPoint x="188" y="113.20001220703125" as="targetPoint" />
          </mxGeometry>
        </mxCell>
        <mxCell id="o_LQ8UwduXloLryF-NKm-7" value="Location" style="ellipse;whiteSpace=wrap;html=1;" vertex="1" parent="1">
          <mxGeometry x="149" y="37" width="78" height="35" as="geometry" />
        </mxCell>
        <mxCell id="o_LQ8UwduXloLryF-NKm-13" value="Name" style="ellipse;whiteSpace=wrap;html=1;" vertex="1" parent="1">
          <mxGeometry x="543" y="41" width="78" height="35" as="geometry" />
        </mxCell>
        <mxCell id="o_LQ8UwduXloLryF-NKm-16" style="edgeStyle=orthogonalEdgeStyle;rounded=0;orthogonalLoop=1;jettySize=auto;html=1;exitX=0.5;exitY=1;exitDx=0;exitDy=0;entryX=0.75;entryY=0;entryDx=0;entryDy=0;endArrow=none;endFill=0;" edge="1" parent="1" source="o_LQ8UwduXloLryF-NKm-14" target="o_LQ8UwduXloLryF-NKm-2">
          <mxGeometry relative="1" as="geometry" />
        </mxCell>
        <mxCell id="o_LQ8UwduXloLryF-NKm-14" value="&lt;u&gt;ID&lt;/u&gt;" style="ellipse;whiteSpace=wrap;html=1;" vertex="1" parent="1">
          <mxGeometry x="649" y="41" width="78" height="35" as="geometry" />
        </mxCell>
        <mxCell id="o_LQ8UwduXloLryF-NKm-15" style="edgeStyle=orthogonalEdgeStyle;rounded=0;orthogonalLoop=1;jettySize=auto;html=1;exitX=0.5;exitY=1;exitDx=0;exitDy=0;endArrow=none;endFill=0;entryX=0.148;entryY=0.027;entryDx=0;entryDy=0;entryPerimeter=0;" edge="1" parent="1" source="o_LQ8UwduXloLryF-NKm-13" target="o_LQ8UwduXloLryF-NKm-2">
          <mxGeometry relative="1" as="geometry">
            <mxPoint x="584" y="104" as="targetPoint" />
          </mxGeometry>
        </mxCell>
        <mxCell id="o_LQ8UwduXloLryF-NKm-17" value="Name" style="ellipse;whiteSpace=wrap;html=1;" vertex="1" parent="1">
          <mxGeometry x="513" y="376" width="78" height="35" as="geometry" />
        </mxCell>
        <mxCell id="o_LQ8UwduXloLryF-NKm-19" style="edgeStyle=orthogonalEdgeStyle;rounded=0;orthogonalLoop=1;jettySize=auto;html=1;exitX=0.5;exitY=0;exitDx=0;exitDy=0;entryX=0.75;entryY=1;entryDx=0;entryDy=0;endArrow=none;endFill=0;" edge="1" parent="1" source="o_LQ8UwduXloLryF-NKm-18" target="o_LQ8UwduXloLryF-NKm-4">
          <mxGeometry relative="1" as="geometry" />
        </mxCell>
        <mxCell id="o_LQ8UwduXloLryF-NKm-18" value="&lt;u&gt;ID&lt;/u&gt;" style="ellipse;whiteSpace=wrap;html=1;" vertex="1" parent="1">
          <mxGeometry x="635" y="376" width="78" height="35" as="geometry" />
        </mxCell>
        <mxCell id="o_LQ8UwduXloLryF-NKm-20" style="edgeStyle=orthogonalEdgeStyle;rounded=0;orthogonalLoop=1;jettySize=auto;html=1;exitX=0.5;exitY=0;exitDx=0;exitDy=0;entryX=0.188;entryY=0.984;entryDx=0;entryDy=0;entryPerimeter=0;endArrow=none;endFill=0;" edge="1" parent="1" source="o_LQ8UwduXloLryF-NKm-17" target="o_LQ8UwduXloLryF-NKm-4">
          <mxGeometry relative="1" as="geometry" />
        </mxCell>
        <mxCell id="o_LQ8UwduXloLryF-NKm-27" style="edgeStyle=orthogonalEdgeStyle;rounded=0;orthogonalLoop=1;jettySize=auto;html=1;exitX=0.5;exitY=0;exitDx=0;exitDy=0;entryX=0.75;entryY=1;entryDx=0;entryDy=0;endArrow=none;endFill=0;" edge="1" parent="1" source="o_LQ8UwduXloLryF-NKm-21" target="o_LQ8UwduXloLryF-NKm-3">
          <mxGeometry relative="1" as="geometry" />
        </mxCell>
        <mxCell id="o_LQ8UwduXloLryF-NKm-21" value="Location" style="ellipse;whiteSpace=wrap;html=1;" vertex="1" parent="1">
          <mxGeometry x="169" y="403" width="78" height="35" as="geometry" />
        </mxCell>
        <mxCell id="o_LQ8UwduXloLryF-NKm-26" style="edgeStyle=orthogonalEdgeStyle;rounded=0;orthogonalLoop=1;jettySize=auto;html=1;exitX=1;exitY=0.5;exitDx=0;exitDy=0;endArrow=none;endFill=0;" edge="1" parent="1" source="o_LQ8UwduXloLryF-NKm-22">
          <mxGeometry relative="1" as="geometry">
            <mxPoint x="106.79998779296875" y="354" as="targetPoint" />
          </mxGeometry>
        </mxCell>
        <mxCell id="o_LQ8UwduXloLryF-NKm-22" value="&lt;u&gt;ID&lt;/u&gt;" style="ellipse;whiteSpace=wrap;html=1;" vertex="1" parent="1">
          <mxGeometry x="3" y="336" width="78" height="35" as="geometry" />
        </mxCell>
        <mxCell id="o_LQ8UwduXloLryF-NKm-36" style="edgeStyle=orthogonalEdgeStyle;rounded=0;orthogonalLoop=1;jettySize=auto;html=1;exitX=0.5;exitY=0;exitDx=0;exitDy=0;entryX=1;entryY=0.5;entryDx=0;entryDy=0;endArrow=none;endFill=0;" edge="1" parent="1" source="o_LQ8UwduXloLryF-NKm-28" target="o_LQ8UwduXloLryF-NKm-21">
          <mxGeometry relative="1" as="geometry" />
        </mxCell>
        <mxCell id="o_LQ8UwduXloLryF-NKm-28" value="State" style="ellipse;whiteSpace=wrap;html=1;" vertex="1" parent="1">
          <mxGeometry x="289" y="461" width="78" height="35" as="geometry" />
        </mxCell>
        <mxCell id="o_LQ8UwduXloLryF-NKm-29" value="City" style="ellipse;whiteSpace=wrap;html=1;" vertex="1" parent="1">
          <mxGeometry x="180" y="463" width="78" height="35" as="geometry" />
        </mxCell>
        <mxCell id="o_LQ8UwduXloLryF-NKm-30" value="Address" style="ellipse;whiteSpace=wrap;html=1;" vertex="1" parent="1">
          <mxGeometry x="98" y="472" width="78" height="35" as="geometry" />
        </mxCell>
        <mxCell id="o_LQ8UwduXloLryF-NKm-32" style="edgeStyle=orthogonalEdgeStyle;rounded=0;orthogonalLoop=1;jettySize=auto;html=1;exitX=1;exitY=0.5;exitDx=0;exitDy=0;entryX=0;entryY=0;entryDx=0;entryDy=0;endArrow=none;endFill=0;" edge="1" parent="1" source="o_LQ8UwduXloLryF-NKm-31" target="o_LQ8UwduXloLryF-NKm-21">
          <mxGeometry relative="1" as="geometry" />
        </mxCell>
        <mxCell id="o_LQ8UwduXloLryF-NKm-31" value="Zip-Code" style="ellipse;whiteSpace=wrap;html=1;" vertex="1" parent="1">
          <mxGeometry x="56" y="414" width="78" height="35" as="geometry" />
        </mxCell>
        <mxCell id="o_LQ8UwduXloLryF-NKm-33" style="edgeStyle=orthogonalEdgeStyle;rounded=0;orthogonalLoop=1;jettySize=auto;html=1;exitX=0.5;exitY=0;exitDx=0;exitDy=0;entryX=0.31;entryY=0.926;entryDx=0;entryDy=0;entryPerimeter=0;endArrow=none;endFill=0;" edge="1" parent="1" source="o_LQ8UwduXloLryF-NKm-30" target="o_LQ8UwduXloLryF-NKm-21">
          <mxGeometry relative="1" as="geometry" />
        </mxCell>
        <mxCell id="o_LQ8UwduXloLryF-NKm-34" style="edgeStyle=orthogonalEdgeStyle;rounded=0;orthogonalLoop=1;jettySize=auto;html=1;exitX=0.5;exitY=0;exitDx=0;exitDy=0;entryX=0.669;entryY=0.886;entryDx=0;entryDy=0;entryPerimeter=0;endArrow=none;endFill=0;" edge="1" parent="1" source="o_LQ8UwduXloLryF-NKm-29" target="o_LQ8UwduXloLryF-NKm-21">
          <mxGeometry relative="1" as="geometry" />
        </mxCell>
        <mxCell id="o_LQ8UwduXloLryF-NKm-38" style="edgeStyle=orthogonalEdgeStyle;rounded=0;orthogonalLoop=1;jettySize=auto;html=1;exitX=0;exitY=0.5;exitDx=0;exitDy=0;endArrow=ERzeroToMany;endFill=0;" edge="1" parent="1" source="o_LQ8UwduXloLryF-NKm-37" target="o_LQ8UwduXloLryF-NKm-3">
          <mxGeometry relative="1" as="geometry" />
        </mxCell>
        <mxCell id="o_LQ8UwduXloLryF-NKm-39" style="edgeStyle=orthogonalEdgeStyle;rounded=0;orthogonalLoop=1;jettySize=auto;html=1;exitX=1;exitY=0.5;exitDx=0;exitDy=0;entryX=0;entryY=0.25;entryDx=0;entryDy=0;endArrow=ERoneToMany;endFill=0;" edge="1" parent="1" source="o_LQ8UwduXloLryF-NKm-37" target="o_LQ8UwduXloLryF-NKm-4">
          <mxGeometry relative="1" as="geometry" />
        </mxCell>
        <mxCell id="o_LQ8UwduXloLryF-NKm-37" value="Own" style="rhombus;whiteSpace=wrap;html=1;" vertex="1" parent="1">
          <mxGeometry x="352" y="310" width="65" height="53" as="geometry" />
        </mxCell>
        <mxCell id="o_LQ8UwduXloLryF-NKm-42" style="edgeStyle=orthogonalEdgeStyle;rounded=0;orthogonalLoop=1;jettySize=auto;html=1;exitX=0.5;exitY=1;exitDx=0;exitDy=0;endArrow=ERoneToMany;endFill=0;" edge="1" parent="1" source="o_LQ8UwduXloLryF-NKm-40" target="o_LQ8UwduXloLryF-NKm-3">
          <mxGeometry relative="1" as="geometry" />
        </mxCell>
        <mxCell id="o_LQ8UwduXloLryF-NKm-40" value="List" style="rhombus;whiteSpace=wrap;html=1;" vertex="1" parent="1">
          <mxGeometry x="111" y="221" width="65" height="53" as="geometry" />
        </mxCell>
        <mxCell id="o_LQ8UwduXloLryF-NKm-41" style="edgeStyle=orthogonalEdgeStyle;rounded=0;orthogonalLoop=1;jettySize=auto;html=1;exitX=0.5;exitY=0;exitDx=0;exitDy=0;entryX=0.562;entryY=1.059;entryDx=0;entryDy=0;entryPerimeter=0;endArrow=circle;endFill=0;" edge="1" parent="1" source="o_LQ8UwduXloLryF-NKm-40" target="o_LQ8UwduXloLryF-NKm-1">
          <mxGeometry relative="1" as="geometry" />
        </mxCell>
        <mxCell id="o_LQ8UwduXloLryF-NKm-45" style="edgeStyle=orthogonalEdgeStyle;rounded=0;orthogonalLoop=1;jettySize=auto;html=1;exitX=0;exitY=0.5;exitDx=0;exitDy=0;entryX=1;entryY=0.5;entryDx=0;entryDy=0;endArrow=circle;endFill=0;" edge="1" parent="1" source="o_LQ8UwduXloLryF-NKm-43" target="o_LQ8UwduXloLryF-NKm-1">
          <mxGeometry relative="1" as="geometry" />
        </mxCell>
        <mxCell id="o_LQ8UwduXloLryF-NKm-46" style="edgeStyle=orthogonalEdgeStyle;rounded=0;orthogonalLoop=1;jettySize=auto;html=1;exitX=1;exitY=0.5;exitDx=0;exitDy=0;entryX=0;entryY=0.25;entryDx=0;entryDy=0;endArrow=ERoneToMany;endFill=0;" edge="1" parent="1" source="o_LQ8UwduXloLryF-NKm-43" target="o_LQ8UwduXloLryF-NKm-2">
          <mxGeometry relative="1" as="geometry" />
        </mxCell>
        <mxCell id="o_LQ8UwduXloLryF-NKm-43" value="Assign" style="rhombus;whiteSpace=wrap;html=1;" vertex="1" parent="1">
          <mxGeometry x="346" y="46" width="65" height="53" as="geometry" />
        </mxCell>
        <mxCell id="o_LQ8UwduXloLryF-NKm-47" style="edgeStyle=orthogonalEdgeStyle;rounded=0;orthogonalLoop=1;jettySize=auto;html=1;exitX=1;exitY=0.5;exitDx=0;exitDy=0;entryX=0;entryY=0.75;entryDx=0;entryDy=0;endArrow=circle;endFill=0;" edge="1" parent="1" source="o_LQ8UwduXloLryF-NKm-44" target="o_LQ8UwduXloLryF-NKm-2">
          <mxGeometry relative="1" as="geometry" />
        </mxCell>
        <mxCell id="o_LQ8UwduXloLryF-NKm-44" value="Manage" style="rhombus;whiteSpace=wrap;html=1;" vertex="1" parent="1">
          <mxGeometry x="344" y="160" width="65" height="53" as="geometry" />
        </mxCell>
        <mxCell id="o_LQ8UwduXloLryF-NKm-49" style="edgeStyle=orthogonalEdgeStyle;rounded=0;orthogonalLoop=1;jettySize=auto;html=1;exitX=0;exitY=0.5;exitDx=0;exitDy=0;entryX=0.848;entryY=1.005;entryDx=0;entryDy=0;entryPerimeter=0;endArrow=ERone;endFill=0;" edge="1" parent="1" source="o_LQ8UwduXloLryF-NKm-44" target="o_LQ8UwduXloLryF-NKm-1">
          <mxGeometry relative="1" as="geometry" />
        </mxCell>
        <mxCell id="o_LQ8UwduXloLryF-NKm-51" style="edgeStyle=orthogonalEdgeStyle;rounded=0;orthogonalLoop=1;jettySize=auto;html=1;exitX=0.5;exitY=1;exitDx=0;exitDy=0;entryX=0.5;entryY=0;entryDx=0;entryDy=0;endArrow=none;endFill=0;" edge="1" parent="1" source="o_LQ8UwduXloLryF-NKm-50" target="o_LQ8UwduXloLryF-NKm-37">
          <mxGeometry relative="1" as="geometry" />
        </mxCell>
        <mxCell id="o_LQ8UwduXloLryF-NKm-50" value="Percent" style="ellipse;whiteSpace=wrap;html=1;" vertex="1" parent="1">
          <mxGeometry x="346" y="239" width="78" height="35" as="geometry" />
        </mxCell>
      </root>
    </mxGraphModel>
  </diagram>
</mxfile>
